YT-DLP DARK DOWNLOADER
Fecha: 2025-10-07T14:52:19-07:00
Cmd: "C:\laragon\www\b\2024-12-16\_host\vik\vik_app_games\rhoodm\yt-dlp\yt-dlp.exe" --no-part --restrict-filenames --hls-prefer-ffmpeg --merge-output-format mp4 --ffmpeg-location "C:\laragon\www\b\2024-12-16\_host\vik\vik_app_games\rhoodm\yt-dlp\ffmpeg.exe" -o "C:\laragon\www\b\2024-12-16\_host\vik\vik_app_games\rhoodm\output\oakley3.mp4" "https://media.ccdn.cloud/luxottica-csc/videos/6312de1f-435d-4c2f-8bc4-4c0e0fd1ee6c/1080p.m3u8"
---
[generic] Extracting URL: https://media.ccdn.cloud/luxottica-csc/videos/6312de1f-435d-4c2f-8bc4-4c0e0fd1ee6c/1080p.m3u8
[generic] 1080p: Downloading webpage
[generic] 1080p: Downloading m3u8 information
[generic] 1080p: Checking m3u8 live status
[info] 1080p: Downloading 1 format(s): 0
[download] Destination: C:\laragon\www\b\2024-12-16\_host\vik\vik_app_games\rhoodm\output\oakley3.mp4
mime type is not rfc8216 compliant
[hls @ 0000029662bdfa40] Skip ('#EXT-X-VERSION:3')
[hls @ 0000029662bdfa40] Opening 'https://media.ccdn.cloud/luxottica-csc/videos/6312de1f-435d-4c2f-8bc4-4c0e0fd1ee6c/1080p-1.ts' for reading
[hls @ 0000029662bdfa40] Opening 'https://media.ccdn.cloud/luxottica-csc/videos/6312de1f-435d-4c2f-8bc4-4c0e0fd1ee6c/1080p-2.ts' for reading
Input #0, hls, from 'https://media.ccdn.cloud/luxottica-csc/videos/6312de1f-435d-4c2f-8bc4-4c0e0fd1ee6c/1080p.m3u8':
  Duration: 00:05:23.53, start: 0.700000, bitrate: 0 kb/s
  Program 0 
    Metadata:
      variant_bitrate : 0
  Stream #0:0: Video: h264 (Constrained Baseline) ([27][0][0][0] / 0x001B), yuv420p(tv, bt709), 1920x1080 [SAR 1:1 DAR 16:9], 23.98 fps, 23.98 tbr, 90k tbn
      Metadata:
        variant_bitrate : 0
  Stream #0:1: Audio: aac (LC) ([15][0][0][0] / 0x000F), 48000 Hz, stereo, fltp
      Metadata:
        variant_bitrate : 0
Stream mapping:
  Stream #0:0 -> #0:0 (copy)
  Stream #0:1 -> #0:1 (copy)
Output #0, mp4, to 'file:C:\laragon\www\b\2024-12-16\_host\vik\vik_app_games\rhoodm\output\oakley3.mp4':
  Metadata:
    encoder         : Lavf61.7.100
  Stream #0:0: Video: h264 (Constrained Baseline) (avc1 / 0x31637661), yuv420p(tv, bt709), 1920x1080 [SAR 1:1 DAR 16:9], q=2-31, 23.98 fps, 23.98 tbr, 90k tbn
      Metadata:
        variant_bitrate : 0
  Stream #0:1: Audio: aac (LC) (mp4a / 0x6134706D), 48000 Hz, stereo, fltp
      Metadata:
        variant_bitrate : 0
Press [q] to stop, [?] for help
[https @ 000002966318bc00] Opening 'https://media.ccdn.cloud/luxottica-csc/videos/6312de1f-435d-4c2f-8bc4-4c0e0fd1ee6c/1080p-3.ts' for reading
[https @ 00000296633e26c0] Opening 'https://media.ccdn.cloud/luxottica-csc/videos/6312de1f-435d-4c2f-8bc4-4c0e0fd1ee6c/1080p-4.ts' for reading
[https @ 000002966318bc00] Opening 'https://media.ccdn.cloud/luxottica-csc/videos/6312de1f-435d-4c2f-8bc4-4c0e0fd1ee6c/1080p-5.ts' for reading
frame=  528 fps=0.0 q=-1.0 size=    3584KiB time=00:00:22.02 bitrate=1333.2kbits/s speed=43.1x    [https @ 00000296633e26c0] Opening 'https://media.ccdn.cloud/luxottica-csc/videos/6312de1f-435d-4c2f-8bc4-4c0e0fd1ee6c/1080p-6.ts' for reading
[https @ 000002966318bc00] Opening 'https://media.ccdn.cloud/luxottica-csc/videos/6312de1f-435d-4c2f-8bc4-4c0e0fd1ee6c/1080p-7.ts' for reading
frame=  726 fps=706 q=-1.0 size=    5888KiB time=00:00:30.28 bitrate=1592.9kbits/s speed=29.5x    [https @ 00000296633e26c0] Opening 'https://media.ccdn.cloud/luxottica-csc/videos/6312de1f-435d-4c2f-8bc4-4c0e0fd1ee6c/1080p-8.ts' for reading
frame=  924 fps=600 q=-1.0 size=    7936KiB time=00:00:38.53 bitrate=1686.9kbits/s speed=  25x    [https @ 000002966318bc00] Opening 'https://media.ccdn.cloud/luxottica-csc/videos/6312de1f-435d-4c2f-8bc4-4c0e0fd1ee6c/1080p-9.ts' for reading
[https @ 00000296633e26c0] Opening 'https://media.ccdn.cloud/luxottica-csc/videos/6312de1f-435d-4c2f-8bc4-4c0e0fd1ee6c/1080p-10.ts' for reading
frame= 1260 fps=612 q=-1.0 size=   11776KiB time=00:00:52.55 bitrate=1835.7kbits/s speed=25.5x    [https @ 000002966318bc00] Opening 'https://media.ccdn.cloud/luxottica-csc/videos/6312de1f-435d-4c2f-8bc4-4c0e0fd1ee6c/1080p-11.ts' for reading
[https @ 00000296633e26c0] Opening 'https://media.ccdn.cloud/luxottica-csc/videos/6312de1f-435d-4c2f-8bc4-4c0e0fd1ee6c/1080p-12.ts' for reading
[https @ 000002966318bc00] Opening 'https://media.ccdn.cloud/luxottica-csc/videos/6312de1f-435d-4c2f-8bc4-4c0e0fd1ee6c/1080p-13.ts' for reading
[https @ 00000296633e26c0] Opening 'https://media.ccdn.cloud/luxottica-csc/videos/6312de1f-435d-4c2f-8bc4-4c0e0fd1ee6c/1080p-14.ts' for reading
[https @ 000002966318bc00] Opening 'https://media.ccdn.cloud/luxottica-csc/videos/6312de1f-435d-4c2f-8bc4-4c0e0fd1ee6c/1080p-15.ts' for reading
frame= 1912 fps=746 q=-1.0 size=   17664KiB time=00:01:19.70 bitrate=1815.5kbits/s speed=31.1x    [https @ 00000296633e26c0] Opening 'https://media.ccdn.cloud/luxottica-csc/videos/6312de1f-435d-4c2f-8bc4-4c0e0fd1ee6c/1080p-16.ts' for reading
[https @ 000002966318bc00] Opening 'https://media.ccdn.cloud/luxottica-csc/videos/6312de1f-435d-4c2f-8bc4-4c0e0fd1ee6c/1080p-17.ts' for reading
[https @ 00000296633e26c0] Opening 'https://media.ccdn.cloud/luxottica-csc/videos/6312de1f-435d-4c2f-8bc4-4c0e0fd1ee6c/1080p-18.ts' for reading
frame= 2303 fps=748 q=-1.0 size=   22784KiB time=00:01:36.05 bitrate=1943.1kbits/s speed=31.2x    [https @ 000002966318bc00] Opening 'https://media.ccdn.cloud/luxottica-csc/videos/6312de1f-435d-4c2f-8bc4-4c0e0fd1ee6c/1080p-19.ts' for reading
[https @ 00000296633e26c0] Opening 'https://media.ccdn.cloud/luxottica-csc/videos/6312de1f-435d-4c2f-8bc4-4c0e0fd1ee6c/1080p-20.ts' for reading
[https @ 000002966318bc00] Opening 'https://media.ccdn.cloud/luxottica-csc/videos/6312de1f-435d-4c2f-8bc4-4c0e0fd1ee6c/1080p-21.ts' for reading
frame= 2773 fps=770 q=-1.0 size=   27904KiB time=00:01:55.65 bitrate=1976.4kbits/s speed=32.1x    [https @ 00000296633e26c0] Opening 'https://media.ccdn.cloud/luxottica-csc/videos/6312de1f-435d-4c2f-8bc4-4c0e0fd1ee6c/1080p-22.ts' for reading
[https @ 000002966318bc00] Opening 'https://media.ccdn.cloud/luxottica-csc/videos/6312de1f-435d-4c2f-8bc4-4c0e0fd1ee6c/1080p-23.ts' for reading
[https @ 00000296633e26c0] Opening 'https://media.ccdn.cloud/luxottica-csc/videos/6312de1f-435d-4c2f-8bc4-4c0e0fd1ee6c/1080p-24.ts' for reading
[https @ 000002966318bc00] Opening 'https://media.ccdn.cloud/luxottica-csc/videos/6312de1f-435d-4c2f-8bc4-4c0e0fd1ee6c/1080p-25.ts' for reading
frame= 3353 fps=814 q=-1.0 size=   32768KiB time=00:02:19.84 bitrate=1919.5kbits/s speed=  34x    [https @ 00000296633e26c0] Opening 'https://media.ccdn.cloud/luxottica-csc/videos/6312de1f-435d-4c2f-8bc4-4c0e0fd1ee6c/1080p-26.ts' for reading
[https @ 000002966318bc00] Opening 'https://media.ccdn.cloud/luxottica-csc/videos/6312de1f-435d-4c2f-8bc4-4c0e0fd1ee6c/1080p-27.ts' for reading
frame= 3686 fps=795 q=-1.0 size=   37376KiB time=00:02:33.73 bitrate=1991.6kbits/s speed=33.1x    [https @ 00000296633e26c0] Opening 'https://media.ccdn.cloud/luxottica-csc/videos/6312de1f-435d-4c2f-8bc4-4c0e0fd1ee6c/1080p-28.ts' for reading
[https @ 000002966318bc00] Opening 'https://media.ccdn.cloud/luxottica-csc/videos/6312de1f-435d-4c2f-8bc4-4c0e0fd1ee6c/1080p-29.ts' for reading
[https @ 00000296633e26c0] Opening 'https://media.ccdn.cloud/luxottica-csc/videos/6312de1f-435d-4c2f-8bc4-4c0e0fd1ee6c/1080p-30.ts' for reading
frame= 4052 fps=788 q=-1.0 size=   42240KiB time=00:02:49.00 bitrate=2047.5kbits/s speed=32.8x    [https @ 000002966318bc00] Opening 'https://media.ccdn.cloud/luxottica-csc/videos/6312de1f-435d-4c2f-8bc4-4c0e0fd1ee6c/1080p-31.ts' for reading
[https @ 00000296633e26c0] Opening 'https://media.ccdn.cloud/luxottica-csc/videos/6312de1f-435d-4c2f-8bc4-4c0e0fd1ee6c/1080p-32.ts' for reading
frame= 4421 fps=780 q=-1.0 size=   47104KiB time=00:03:04.39 bitrate=2092.7kbits/s speed=32.5x    [https @ 000002966318bc00] Opening 'https://media.ccdn.cloud/luxottica-csc/videos/6312de1f-435d-4c2f-8bc4-4c0e0fd1ee6c/1080p-33.ts' for reading
[https @ 00000296633e26c0] Opening 'https://media.ccdn.cloud/luxottica-csc/videos/6312de1f-435d-4c2f-8bc4-4c0e0fd1ee6c/1080p-34.ts' for reading
[https @ 000002966318bc00] Opening 'https://media.ccdn.cloud/luxottica-csc/videos/6312de1f-435d-4c2f-8bc4-4c0e0fd1ee6c/1080p-35.ts' for reading
frame= 4894 fps=793 q=-1.0 size=   51712KiB time=00:03:24.12 bitrate=2075.4kbits/s speed=33.1x    [https @ 00000296633e26c0] Opening 'https://media.ccdn.cloud/luxottica-csc/videos/6312de1f-435d-4c2f-8bc4-4c0e0fd1ee6c/1080p-36.ts' for reading
[https @ 000002966318bc00] Opening 'https://media.ccdn.cloud/luxottica-csc/videos/6312de1f-435d-4c2f-8bc4-4c0e0fd1ee6c/1080p-37.ts' for reading
frame= 5156 fps=771 q=-1.0 size=   56320KiB time=00:03:35.04 bitrate=2145.4kbits/s speed=32.1x    [https @ 00000296633e26c0] Opening 'https://media.ccdn.cloud/luxottica-csc/videos/6312de1f-435d-4c2f-8bc4-4c0e0fd1ee6c/1080p-38.ts' for reading
[https @ 000002966318bc00] Opening 'https://media.ccdn.cloud/luxottica-csc/videos/6312de1f-435d-4c2f-8bc4-4c0e0fd1ee6c/1080p-39.ts' for reading
[https @ 00000296633e26c0] Opening 'https://media.ccdn.cloud/luxottica-csc/videos/6312de1f-435d-4c2f-8bc4-4c0e0fd1ee6c/1080p-40.ts' for reading
[https @ 000002966318bc00] Opening 'https://media.ccdn.cloud/luxottica-csc/videos/6312de1f-435d-4c2f-8bc4-4c0e0fd1ee6c/1080p-41.ts' for reading
frame= 5736 fps=795 q=-1.0 size=   59904KiB time=00:03:59.23 bitrate=2051.2kbits/s speed=33.2x    [https @ 00000296633e26c0] Opening 'https://media.ccdn.cloud/luxottica-csc/videos/6312de1f-435d-4c2f-8bc4-4c0e0fd1ee6c/1080p-42.ts' for reading
[https @ 000002966318bc00] Opening 'https://media.ccdn.cloud/luxottica-csc/videos/6312de1f-435d-4c2f-8bc4-4c0e0fd1ee6c/1080p-43.ts' for reading
[https @ 00000296633e26c0] Opening 'https://media.ccdn.cloud/luxottica-csc/videos/6312de1f-435d-4c2f-8bc4-4c0e0fd1ee6c/1080p-44.ts' for reading
[https @ 000002966318bc00] Opening 'https://media.ccdn.cloud/luxottica-csc/videos/6312de1f-435d-4c2f-8bc4-4c0e0fd1ee6c/1080p-45.ts' for reading
frame= 6263 fps=810 q=-1.0 size=   64256KiB time=00:04:21.21 bitrate=2015.1kbits/s speed=33.8x    [https @ 00000296633e26c0] Opening 'https://media.ccdn.cloud/luxottica-csc/videos/6312de1f-435d-4c2f-8bc4-4c0e0fd1ee6c/1080p-46.ts' for reading
[https @ 000002966318bc00] Opening 'https://media.ccdn.cloud/luxottica-csc/videos/6312de1f-435d-4c2f-8bc4-4c0e0fd1ee6c/1080p-47.ts' for reading
[https @ 00000296633e26c0] Opening 'https://media.ccdn.cloud/luxottica-csc/videos/6312de1f-435d-4c2f-8bc4-4c0e0fd1ee6c/1080p-48.ts' for reading
frame= 6719 fps=816 q=-1.0 size=   68352KiB time=00:04:40.23 bitrate=1998.1kbits/s speed=  34x    [https @ 000002966318bc00] Opening 'https://media.ccdn.cloud/luxottica-csc/videos/6312de1f-435d-4c2f-8bc4-4c0e0fd1ee6c/1080p-49.ts' for reading
[https @ 00000296633e26c0] Opening 'https://media.ccdn.cloud/luxottica-csc/videos/6312de1f-435d-4c2f-8bc4-4c0e0fd1ee6c/1080p-50.ts' for reading
[https @ 000002966318bc00] Opening 'https://media.ccdn.cloud/luxottica-csc/videos/6312de1f-435d-4c2f-8bc4-4c0e0fd1ee6c/1080p-51.ts' for reading
[https @ 00000296633e26c0] Opening 'https://media.ccdn.cloud/luxottica-csc/videos/6312de1f-435d-4c2f-8bc4-4c0e0fd1ee6c/1080p-52.ts' for reading
frame= 7333 fps=837 q=-1.0 size=   72448KiB time=00:05:05.84 bitrate=1940.5kbits/s speed=34.9x    [https @ 000002966318bc00] Opening 'https://media.ccdn.cloud/luxottica-csc/videos/6312de1f-435d-4c2f-8bc4-4c0e0fd1ee6c/1080p-53.ts' for reading
[https @ 00000296633e26c0] Opening 'https://media.ccdn.cloud/luxottica-csc/videos/6312de1f-435d-4c2f-8bc4-4c0e0fd1ee6c/1080p-54.ts' for reading
[out#0/mp4 @ 000002966358fa00] video:73974KiB audio:2631KiB subtitle:0KiB other streams:0KiB global headers:0KiB muxing overhead: 0.123401%
frame= 7757 fps=849 q=-1.0 Lsize=   76700KiB time=00:05:23.52 bitrate=1942.2kbits/s speed=35.4x    
[download] 100% of   74.90MiB in 00:00:09 at 8.01MiB/s
